<svg width="40px" height="38px" viewBox="0 0 40 38" version="1.1" xmlns="http://www.w3.org/2000/svg" xmlns:xlink="http://www.w3.org/1999/xlink">
    <g id="Page-1" stroke="none" stroke-width="1" fill="none" fill-rule="evenodd">
        <g id="logo-driebit">
            <path d="M35.418553,12.9326667 C28.928316,5.3428 20.280064,-1.35195556 12.633261,1.09355556 C6.479681,3.06195556 1.278116,13.7315111 0.682361,23.6714667 C-0.341247,40.7621778 13.877614,38.4762667 23.469357,35.5114222 C33.059396,32.5457333 46.98251,26.4564444 35.418553,12.9326667" id="Fill-8" fill="#97C93C" fill-rule="nonzero"></path>
            <path d="M22.238641,14.3395111 C21.793743,14.2364889 21.338616,14.1512 20.878376,14.0836444 C13.927899,3.534 10.20933,19.7025778 17.214354,23.6773778 C5.9487,17.2824 15.224242,-6.20413333 22.238641,14.3395111 L22.238641,14.3395111 Z" id="Fill-9" fill="#FFFFFF" fill-rule="nonzero"></path>
            <path d="M22.238641,14.3395111 C21.793743,14.2364889 21.338616,14.1512 20.878376,14.0836444 C13.927899,3.534 10.20933,19.7025778 17.214354,23.6773778 C5.9487,17.2824 15.224242,-6.20413333 22.238641,14.3395111 L22.238641,14.3395111 Z" id="Stroke-10" stroke="#FFFFFF" stroke-width="1.228" stroke-linecap="round" stroke-linejoin="round"></path>
            <path d="M11.04458,20.5698222 C11.173277,21.1795111 11.358225,21.7300889 11.604539,22.3136 C8.117795,28.5523556 12.310241,29.3968 16.23677,27.6184 C19.282025,26.2402667 22.438931,23.2636 22.528422,20.0699111 C22.163639,33.0937778 -1.7279335,36.5053333 11.04458,20.5698222 L11.04458,20.5698222 Z" id="Fill-11" fill="#FFFFFF" fill-rule="nonzero"></path>
            <path d="M11.04458,20.5698222 C11.173277,21.1795111 11.358225,21.7300889 11.604539,22.3136 C8.117795,28.5523556 12.310241,29.3968 16.23677,27.6184 C19.282025,26.2402667 22.438931,23.2636 22.528422,20.0699111 C22.163639,33.0937778 -1.7279335,36.5053333 11.04458,20.5698222 L11.04458,20.5698222 Z" id="Stroke-12" stroke="#FFFFFF" stroke-width="1.228" stroke-linecap="round" stroke-linejoin="round"></path>
            <path d="M23.181281,26.6109778 C23.620214,26.2436444 23.963689,25.8129778 24.354893,25.3856889 C37.775152,22.8650222 23.735274,14.9568 16.857242,17.4386222 C28.752743,13.1463111 44.79637,28.5194222 23.181281,26.6109778 L23.181281,26.6109778 Z" id="Fill-13" fill="#FFFFFF" fill-rule="nonzero"></path>
            <path d="M23.181281,26.6109778 C23.620214,26.2436444 23.963689,25.8129778 24.354893,25.3856889 C37.775152,22.8650222 23.735274,14.9568 16.857242,17.4386222 C28.752743,13.1463111 44.79637,28.5194222 23.181281,26.6109778 L23.181281,26.6109778 Z" id="Stroke-14" stroke="#FFFFFF" stroke-width="1.228" stroke-linecap="round" stroke-linejoin="round"></path>
        </g>
    </g>
</svg>